<svg width="20" height="24" viewBox="0 0 20 24"  xmlns="http://www.w3.org/2000/svg">
<path opacity="0.95" d="M18.9895 22.0812L17.6661 7.17252C17.63 6.76537 17.2927 6.45352 16.8887 6.45352H14.1596V5.2084C14.1596 2.88789 12.2935 1 9.99969 1C7.706 1 5.84008 2.88789 5.84008 5.2084V6.45352H3.10915C2.70512 6.45352 2.3678 6.76537 2.33169 7.17252L1.00312 22.1398C0.983554 22.3607 1.05662 22.5796 1.20451 22.7432C1.35241 22.9068 1.5615 23 1.78059 23H18.2173C18.218 23 18.2188 23 18.2194 23C18.6506 23 19 22.6464 19 22.2104C18.9999 22.1664 18.9964 22.1232 18.9895 22.0812ZM7.40126 5.2084C7.40126 3.75871 8.56694 2.57929 9.99979 2.57929C11.4327 2.57929 12.5985 3.75871 12.5985 5.2084V6.45352H7.40126V5.2084ZM2.63445 21.4208L3.82282 8.03281H5.84008V9.44491C5.84008 9.88101 6.18947 10.2346 6.62067 10.2346C7.05187 10.2346 7.40126 9.88101 7.40126 9.44491V8.03281H12.5985V9.44491C12.5985 9.88101 12.9479 10.2346 13.3791 10.2346C13.8103 10.2346 14.1597 9.88101 14.1597 9.44491V8.03281H16.1751L17.3635 21.4208H2.63445Z"  stroke-width="0.2"/>
</svg>
