<svg width="19" height="22" viewBox="0 0 19 22" xmlns="http://www.w3.org/2000/svg">
<path d="M18.3287 0.72722C18.1396 0.455614 17.885 0.256989 17.5653 0.13099C17.3618 0.0438502 17.1484 0.000203717 16.9254 0.000203717V0H1.68663C1.46371 0 1.25057 0.0436465 1.04695 0.130787C0.727118 0.256684 0.472573 0.455563 0.283574 0.727016C0.0946266 0.99847 0 1.29885 0 1.62852V20.3715C0 20.7013 0.0946266 21.0015 0.283574 21.2732C0.472573 21.5446 0.727118 21.7435 1.04695 21.8693C1.25037 21.9565 1.46371 22 1.68663 22C2.14239 22 2.54448 21.84 2.89355 21.5203L9.30606 15.3547L15.7186 21.5205C16.0579 21.8302 16.4602 21.9853 16.9254 21.9853C17.1678 21.9853 17.3811 21.9468 17.5653 21.8693C17.8849 21.7434 18.1396 21.5446 18.3287 21.2728C18.5176 21.0015 18.612 20.7011 18.612 20.3714V1.62872C18.6121 1.29905 18.5175 0.998674 18.3287 0.72722ZM16.7509 19.9205L10.6002 14.017L9.30606 12.7812L8.012 14.017L1.86137 19.9205V1.86142H16.7509V19.9205Z" />
</svg>
