<svg width="16" height="20" viewBox="0 0 16 20" fill="none" xmlns="http://www.w3.org/2000/svg">
<path d="M5.33333 9V11H3.55556V9H5.33333ZM8.88889 9V11H7.11111V9H8.88889ZM12.4444 9V11H10.6667V9H12.4444ZM14.2222 2C14.6937 2 15.1459 2.21071 15.4793 2.58579C15.8127 2.96086 16 3.46957 16 4V18C16 18.5304 15.8127 19.0391 15.4793 19.4142C15.1459 19.7893 14.6937 20 14.2222 20H1.77778C0.791111 20 0 19.1 0 18V4C0 3.46957 0.187301 2.96086 0.520699 2.58579C0.854097 2.21071 1.30628 2 1.77778 2H2.66667V0H4.44444V2H11.5556V0H13.3333V2H14.2222ZM14.2222 18V7H1.77778V18H14.2222ZM5.33333 13V15H3.55556V13H5.33333ZM8.88889 13V15H7.11111V13H8.88889ZM12.4444 13V15H10.6667V13H12.4444Z" fill="#848484"/>
</svg>
