<svg width="23" height="23" viewBox="0 0 23 23" fill="none" xmlns="http://www.w3.org/2000/svg">
<path d="M19.1667 0H3.83333C1.71967 0 0 1.71967 0 3.83333V15.3333C0 17.447 1.71967 19.1667 3.83333 19.1667H16.8197L19.6894 22.3957C19.702 22.4097 19.7149 22.4235 19.7282 22.4366C20.0958 22.8039 20.5836 22.9991 21.0815 22.9991C21.3288 22.9991 21.5784 22.9506 21.8168 22.8519C22.5356 22.5543 23 21.8596 23 21.0815V3.83333C23 1.71967 21.2803 0 19.1667 0V0ZM21.0833 21.0791L17.9664 17.5719C17.9601 17.5649 17.9524 17.56 17.9458 17.5532C17.9222 17.5284 17.8969 17.5069 17.871 17.4842C17.8485 17.4653 17.827 17.4451 17.8029 17.4283C17.7771 17.41 17.7498 17.3953 17.7219 17.3794C17.6952 17.3639 17.6693 17.3483 17.6419 17.3359C17.6141 17.3232 17.5846 17.3141 17.5553 17.3045C17.5256 17.2945 17.4964 17.2835 17.4657 17.2769C17.4374 17.2701 17.4082 17.2673 17.3794 17.2633C17.3455 17.2587 17.3118 17.2542 17.2774 17.2533C17.2678 17.2523 17.2591 17.25 17.25 17.25H3.83333C2.77627 17.25 1.91667 16.3904 1.91667 15.3333V3.83333C1.91667 2.77627 2.77627 1.91667 3.83333 1.91667H19.1667C20.2237 1.91667 21.0833 2.77627 21.0833 3.83333V21.0791Z" fill="#4F4F4F"/>
</svg>
