<svg width="35" height="35" viewBox="0 0 35 35" fill="none" xmlns="http://www.w3.org/2000/svg">
<g clip-path="url(#clip0)">
<path d="M20.2073 28.0068H17.3894C16.852 28.0068 16.418 28.4409 16.418 28.9783C16.418 29.5157 16.852 29.9498 17.3894 29.9498H20.2073C20.7447 29.9498 21.1788 29.5157 21.1788 28.9783C21.1788 28.4409 20.7447 28.0068 20.2073 28.0068Z" fill="black"/>
<path d="M34.1319 10.0315L24.9685 0.86811C23.811 -0.28937 21.9301 -0.28937 20.7726 0.86811L5.53248 16.122H2.9626C1.32972 16.122 0 17.4518 0 19.0846V32.0374C0 33.6703 1.32972 35 2.9626 35H23.935C25.5679 35 26.8976 33.6703 26.8976 32.0374V21.4547L34.125 14.2274C35.2894 13.0699 35.2894 11.189 34.1319 10.0315ZM22.1506 2.24606C22.5502 1.84646 23.1978 1.84646 23.5974 2.24606L25.1821 3.83071L12.8976 16.122H8.27461L22.1506 2.24606ZM1.94291 19.0846C1.94291 18.5197 2.39764 18.065 2.9626 18.065H23.935C24.5 18.065 24.9547 18.5197 24.9547 19.0846V21.3307H1.94291V19.0846ZM24.9616 32.0443C24.9616 32.6092 24.5069 33.064 23.9419 33.064H2.9626C2.39764 33.064 1.94291 32.6092 1.94291 32.0443V23.2736H24.9616V32.0443ZM32.7608 12.8563L26.8839 18.7333C26.7047 17.2657 25.4577 16.122 23.9419 16.122H15.6535L26.56 5.20866L32.7608 11.4094C33.1535 11.8091 33.1535 12.4567 32.7608 12.8563Z" fill="black"/>
</g>
<defs>
<clipPath id="clip0">
<rect width="35" height="35" fill="white"/>
</clipPath>
</defs>
</svg>
