<svg width="24" height="22" viewBox="0 0 24 22"  xmlns="http://www.w3.org/2000/svg">
<path opacity="0.95" d="M21.2009 2.88009C20.063 1.6835 18.4684 1.00265 16.7978 1.00013C15.1259 1.00202 13.5297 1.6825 12.39 2.87933L12.0016 3.28086L11.6132 2.87933C9.35176 0.498167 5.54536 0.361421 3.11148 2.57383C3.00363 2.67191 2.89947 2.77377 2.79922 2.87933C0.40026 5.4108 0.40026 9.32307 2.79922 11.8545L11.4308 20.7598C11.7294 21.0682 12.2271 21.0814 12.5423 20.7892C12.5527 20.7797 12.5627 20.7699 12.5725 20.7598L21.2009 11.8545C23.5997 9.32334 23.5997 5.41129 21.2009 2.88009ZM20.0632 10.7953H20.0624L12.0016 19.1129L3.9401 10.7953C2.10743 8.86104 2.10743 5.87206 3.9401 3.93778C5.60438 2.17306 8.41589 2.06241 10.2197 3.69061C10.3073 3.76966 10.3916 3.8521 10.4724 3.93778L11.4308 4.927C11.7467 5.23403 12.2566 5.23403 12.5725 4.927L13.5309 3.93854C15.1952 2.17383 18.0067 2.06318 19.8105 3.69137C19.8981 3.77043 19.9824 3.85286 20.0632 3.93854C21.9118 5.87589 21.9253 8.87033 20.0632 10.7953Z" stroke-width="0.3"/>
</svg>
