<svg width="35" height="35" viewBox="0 0 35 35" fill="none" xmlns="http://www.w3.org/2000/svg">
<g clip-path="url(#clip0)">
<path d="M34.9054 20.6034C34.8284 20.4719 34.7101 20.3696 34.5689 20.3125L32.0588 19.2849L34.6586 17.754C34.9873 17.5616 35.0978 17.1392 34.9054 16.8105C34.8284 16.6791 34.7101 16.5768 34.5689 16.5196L32.0588 15.4921L34.6586 13.9611C34.8857 13.8245 35.0144 13.5699 34.9896 13.306C34.9697 13.0454 34.8041 12.8184 34.5621 12.7198L24.6799 8.67183L19.8113 6.603C19.7322 6.57171 19.648 6.55542 19.563 6.55473L11.6325 3.32735C11.4378 3.24649 11.2167 3.25925 11.0325 3.36183L0.405622 9.33386C0.0654712 9.50514 -0.0714166 9.91977 0.0998655 10.2599C0.177964 10.4151 0.311835 10.5351 0.474583 10.5958L3.03994 11.6578L0.405622 13.1267C0.0741775 13.3143 -0.0424529 13.7351 0.145121 14.0666C0.219685 14.1983 0.335368 14.3017 0.474583 14.3611L3.03994 15.4231L0.419414 16.892C0.0690055 17.0413 -0.0939151 17.4464 0.0553856 17.7968C0.133225 17.9794 0.285974 18.1196 0.474583 18.1816L3.03994 19.2367L0.419414 20.7055C0.0879698 20.8931 -0.0286607 21.314 0.158913 21.6454C0.233478 21.7771 0.34916 21.8806 0.488375 21.9399L9.40504 25.7259C9.43763 25.7496 9.47228 25.7704 9.50849 25.788L14.384 27.8568L23.349 31.6704C23.5507 31.756 23.7811 31.7406 23.9696 31.629L34.6586 25.3397C34.9873 25.1473 35.0978 24.7249 34.9054 24.3963C34.8284 24.2648 34.7101 24.1625 34.5689 24.1053L32.0588 23.0778L34.6586 21.5469C34.9873 21.3546 35.0977 20.9321 34.9054 20.6034ZM32.7553 17.2576L23.5628 22.671L15.3426 19.1816V16.8852L23.3421 20.285C23.4272 20.3212 23.5186 20.34 23.611 20.3401C23.7348 20.3401 23.8563 20.3068 23.9627 20.2436L30.5623 16.3611L32.7553 17.2576ZM32.7829 13.4578L23.5628 18.8713L16.0943 15.6991L24.5075 10.0787L32.7829 13.4578ZM9.06713 24.0985L2.30205 21.2228L4.62604 19.9195L9.07403 21.809L9.06713 24.0985ZM9.06713 20.3057L2.30205 17.43L4.62604 16.1128L9.07403 18.0024L9.06713 20.3057ZM9.06713 16.5128L2.30205 13.644L4.62604 12.3406L9.07403 14.2302L9.06713 16.5128ZM2.30205 9.85115L11.4187 4.72734L18.0321 7.43751L9.70158 12.9958L2.30205 9.85115ZM14.2668 15.2715C14.0767 15.3999 13.963 15.6145 13.9634 15.8439V26.188L10.4533 24.6985V14.1543L19.5906 8.06506L22.9904 9.44428L14.2668 15.2715ZM32.7553 24.8433L23.5628 30.2498L15.3426 26.7604V24.4709L23.3421 27.8362C23.5438 27.9218 23.7742 27.9065 23.9627 27.7948L30.5623 23.9123L32.7553 24.8433ZM23.5628 26.457L15.3426 22.9676V20.678L23.349 24.0778C23.5507 24.1634 23.7811 24.1481 23.9696 24.0364L30.5692 20.1539L32.7553 21.0504L23.5628 26.457Z" fill="black"/>
</g>
<defs>
<clipPath id="clip0">
<rect width="35" height="35" fill="white"/>
</clipPath>
</defs>
</svg>
