<svg width="20" height="20" viewBox="0 0 20 20" fill="none" xmlns="http://www.w3.org/2000/svg">
<g clip-path="url(#clip0)">
<path d="M14.2187 6.72112C14.9091 6.72112 15.4687 6.16148 15.4687 5.47113C15.4687 4.78077 14.9091 4.22113 14.2187 4.22113C13.5284 4.22113 12.9688 4.78077 12.9688 5.47113C12.9688 6.16148 13.5284 6.72112 14.2187 6.72112Z" fill="#848484"/>
<path d="M19.7842 6.4819C19.367 5.41964 18.602 3.88695 17.3266 2.61758C16.0557 1.35258 14.5393 0.609459 13.4909 0.208758C12.34 -0.231123 11.0321 0.0461412 10.1591 0.915083L7.09122 3.96859C6.18181 4.8737 5.9197 6.26643 6.43896 7.4342C6.59997 7.79638 6.77509 8.15064 6.9622 8.49291L0.228827 15.2262C0.0823044 15.3728 0 15.5715 0 15.7787V19.2162C0 19.6477 0.349764 19.9974 0.781247 19.9974H4.21873C4.65022 19.9974 4.99998 19.6477 4.99998 19.2162V17.8099L6.40622 17.8099C6.83771 17.8099 7.18747 17.4601 7.18747 17.0287V15.6224H8.59372C9.0252 15.6224 9.37496 15.2727 9.37496 14.8412C9.37496 14.4097 9.0252 14.06 8.59372 14.06H6.40622C5.97474 14.06 5.62498 14.4097 5.62498 14.8412V16.2474L4.21873 16.2474C3.78725 16.2474 3.43749 16.5972 3.43749 17.0287V18.4349H1.56249V16.1023L8.4904 9.17443C8.74493 8.9199 8.79262 8.52447 8.60594 8.21673C8.3352 7.77049 8.08649 7.29361 7.86677 6.79936C7.60899 6.21963 7.74032 5.5271 8.19356 5.07597L11.2614 2.0225C11.6994 1.5866 12.3556 1.44758 12.9332 1.66828C13.8403 2.015 15.1476 2.6532 16.2244 3.72499C17.3078 4.80327 17.9674 6.12995 18.3299 7.05299C18.5561 7.62908 18.4186 8.28357 17.9797 8.72044L14.8748 11.8108C14.4226 12.2608 13.7478 12.3923 13.1554 12.146C12.6669 11.9428 12.1937 11.7014 11.7492 11.4285C11.3815 11.2028 10.9004 11.318 10.6747 11.6857C10.449 12.0534 10.5641 12.5345 10.9318 12.7602C11.4456 13.0755 11.9918 13.3543 12.5553 13.5886C13.7328 14.0784 15.0758 13.8152 15.977 12.9183L19.0819 9.82794C19.9626 8.95142 20.2382 7.63803 19.7842 6.4819Z" fill="#848484"/>
</g>
<defs>
<clipPath id="clip0">
<rect width="20" height="20" fill="white"/>
</clipPath>
</defs>
</svg>
