<svg width="20" height="20" viewBox="0 0 20 20" fill="none" xmlns="http://www.w3.org/2000/svg">
<path d="M19.7842 6.48196C19.367 5.4197 18.602 3.88701 17.3266 2.61764C16.0557 1.35264 14.5393 0.60952 13.4909 0.208819C12.34 -0.231062 11.0321 0.0462022 10.1591 0.915144L7.09122 3.96865C6.18181 4.87376 5.9197 6.26649 6.43896 7.43426C6.59997 7.79644 6.77509 8.1507 6.9622 8.49297L0.228827 15.2263C0.0823044 15.3728 0 15.5715 0 15.7788V19.2162C0 19.6477 0.349764 19.9975 0.781247 19.9975H4.21873C4.65022 19.9975 4.99998 19.6477 4.99998 19.2162V17.81L6.40622 17.81C6.83771 17.81 7.18747 17.4602 7.18747 17.0287V15.6225H8.59372C9.0252 15.6225 9.37496 15.2727 9.37496 14.8413C9.37496 14.4098 9.0252 14.06 8.59372 14.06H6.40622C5.97474 14.06 5.62498 14.4098 5.62498 14.8413V16.2475L4.21873 16.2475C3.78725 16.2475 3.43749 16.5973 3.43749 17.0288V18.435H1.56249V16.1024L8.4904 9.17449C8.74493 8.91996 8.79262 8.52453 8.60594 8.21679C8.3352 7.77055 8.08649 7.29367 7.86677 6.79942C7.60899 6.21969 7.74032 5.52716 8.19356 5.07603L11.2614 2.02256C11.6994 1.58667 12.3556 1.44764 12.9332 1.66834C13.8403 2.01506 15.1476 2.65326 16.2244 3.72505C17.3078 4.80333 17.9674 6.13001 18.3299 7.05305C18.5561 7.62914 18.4186 8.28363 17.9797 8.7205L14.8748 11.8109C14.4226 12.2608 13.7478 12.3924 13.1554 12.146C12.6669 11.9428 12.1937 11.7014 11.7492 11.4286C11.3815 11.2029 10.9004 11.318 10.6747 11.6858C10.449 12.0535 10.5641 12.5346 10.9318 12.7603C11.4456 13.0756 11.9918 13.3543 12.5553 13.5887C13.7328 14.0785 15.0758 13.8153 15.977 12.9183L19.0819 9.828C19.9626 8.95148 20.2382 7.63809 19.7842 6.48196Z" fill="#848484"/>
</svg>
