<svg width="35" height="35" viewBox="0 0 35 35" fill="none" xmlns="http://www.w3.org/2000/svg">
<path fill-rule="evenodd" clip-rule="evenodd" d="M28.0273 0C28.5937 0 29.0527 0.459023 29.0527 1.02539V14.6308C32.6323 16.4215 35 20.0979 35 24.2505C35 30.1871 30.1871 35 24.2505 35C20.0979 35 16.4215 32.6323 14.6308 29.0527H1.02539C0.459023 29.0527 0 28.5937 0 28.0273V1.02539C0 0.459023 0.459023 0 1.02539 0H28.0273ZM19.4141 2.05078V7.79724C19.4141 8.53451 18.6274 9.10194 17.8592 8.67523L14.5264 6.98174L11.1247 8.71048C10.4419 9.05628 9.64054 8.5516 9.64108 7.79724L9.63867 2.05078H2.05078V27.002H13.8567C12.8641 23.2438 13.9803 19.3187 16.6495 16.6495C19.3187 13.9803 23.2438 12.8641 27.002 13.8567V2.05078H19.4141ZM20.9863 28.7793H25.7712C26.8639 28.7793 27.8554 28.3342 28.5732 27.6161C29.3278 26.8618 29.7363 25.8844 29.7363 24.7464C29.7363 22.561 27.9566 20.7812 25.7712 20.7812H22.9218L23.5236 20.1783C24.4719 19.2245 23.0219 17.7828 22.0737 18.7363L19.7219 21.0923C19.3238 21.4926 19.3254 22.1402 19.726 22.5383L22.0822 24.89C23.0358 25.8382 24.4777 24.3883 23.5242 23.4401L22.9148 22.832H25.7712C26.8815 22.832 27.6855 23.7196 27.6855 24.8142C27.6855 25.8673 26.8244 26.7285 25.7712 26.7285H20.9863C20.42 26.7285 19.9609 27.1875 19.9609 27.7539C19.9609 28.3203 20.42 28.7793 20.9863 28.7793ZM18.0995 18.0995C14.7026 21.4966 14.7026 27.0046 18.0995 30.4015C21.4966 33.7986 27.0046 33.7986 30.4015 30.4015C33.7986 27.0046 33.7986 21.4966 30.4015 18.0995C27.0046 14.7026 21.4964 14.7026 18.0995 18.0995ZM17.3633 2.05078H11.6895V6.12885L14.0633 4.92241C14.3435 4.78035 14.685 4.76887 14.987 4.92107L17.3633 6.12885V2.05078Z" fill="black"/>
</svg>
