<svg width="21" height="22" viewBox="0 0 21 22"  xmlns="http://www.w3.org/2000/svg">
<path opacity="0.95" d="M15.427 14.5288L15.3701 14.5972L15.4314 14.6617L20.6082 20.1074C21.0085 20.5284 20.9952 21.2003 20.5793 21.6051L20.5793 21.6051C20.3837 21.7955 20.1265 21.9 19.8552 21.9C19.5685 21.9 19.3014 21.7851 19.1021 21.5757L13.886 16.0887L13.8262 16.0259L13.7556 16.0761C12.2913 17.1169 10.5792 17.665 8.7821 17.665C3.99603 17.665 0.1 13.7261 0.1 8.88249C0.1 4.03892 3.99603 0.1 8.7821 0.1C13.5682 0.1 17.4642 4.03892 17.4642 8.88249C17.4642 10.9554 16.7431 12.9464 15.427 14.5288ZM15.3732 8.88249C15.3732 5.20814 12.4177 2.21717 8.7821 2.21717C5.14653 2.21717 2.19098 5.20814 2.19098 8.88249C2.19098 12.5568 5.14653 15.5478 8.7821 15.5478C12.4177 15.5478 15.3732 12.5568 15.3732 8.88249Z"  stroke="white" stroke-width="0.2"/>
</svg>
