<svg width="20" height="20" viewBox="0 0 20 20" fill="none" xmlns="http://www.w3.org/2000/svg">
<path d="M16.0251 14.1468C15.262 14.1468 14.5743 14.443 14.0522 14.9199L6.89858 10.7482C6.95378 10.5223 6.98894 10.2864 6.98894 10.0454C6.98894 9.80446 6.95378 9.56853 6.89858 9.34263L13.9769 5.21109C14.514 5.71311 15.2319 6.02434 16.0251 6.02434C17.6867 6.02434 19.0371 4.67395 19.0371 3.01229C19.0371 1.35063 17.6867 0.000244141 16.0251 0.000244141C14.3634 0.000244141 13.013 1.35063 13.013 3.01229C13.013 3.25326 13.0482 3.48918 13.1034 3.71509L6.02508 7.84658C5.48795 7.34456 4.77005 7.03333 3.97689 7.03333C2.31523 7.03333 0.964844 8.38372 0.964844 10.0454C0.964844 11.707 2.31523 13.0574 3.97689 13.0574C4.77005 13.0574 5.48795 12.7462 6.02508 12.2442L13.1787 16.4159C13.1285 16.6267 13.0984 16.8476 13.0984 17.0735C13.0984 18.69 14.4086 20.0002 16.0251 20.0002C17.6416 20.0002 18.9518 18.69 18.9518 17.0735C18.9518 15.457 17.6416 14.1468 16.0251 14.1468Z" fill="#1C1C1C"/>
</svg>
