<svg width="23" height="24" viewBox="0 0 23 24" xmlns="http://www.w3.org/2000/svg">
<path opacity="0.95" d="M18.9246 15.2218C17.781 14.0237 16.4198 13.1368 14.9346 12.5999C16.5253 11.4522 17.5703 9.53136 17.5703 7.35938C17.5703 3.85282 14.8472 1 11.5 1C8.15284 1 5.42969 3.85282 5.42969 7.35938C5.42969 9.53136 6.47472 11.4522 8.06543 12.5999C6.58026 13.1368 5.21903 14.0237 4.07539 15.2218C2.09221 17.2995 1 20.0618 1 23H2.64062C2.64062 17.8823 6.61492 13.7188 11.5 13.7188C16.3851 13.7188 20.3594 17.8823 20.3594 23H22C22 20.0618 20.9078 17.2995 18.9246 15.2218ZM11.5 12C9.05748 12 7.07031 9.91825 7.07031 7.35938C7.07031 4.8005 9.05748 2.71875 11.5 2.71875C13.9425 2.71875 15.9297 4.8005 15.9297 7.35938C15.9297 9.91825 13.9425 12 11.5 12Z"  stroke-width="0.2"/>
</svg>
