<svg width="35" height="35" viewBox="0 0 35 35" fill="none" xmlns="http://www.w3.org/2000/svg">
<g clip-path="url(#clip0)">
<path d="M25.5221 34.9998C20.2955 34.9998 16.043 30.7473 16.043 25.5207C16.043 20.294 20.2955 16.0415 25.5221 16.0415C30.7488 16.0415 35.0013 20.294 35.0013 25.5207C35.0013 30.7473 30.7488 34.9998 25.5221 34.9998ZM25.5221 18.229C21.5015 18.229 18.2305 21.5 18.2305 25.5207C18.2305 29.5413 21.5015 32.8123 25.5221 32.8123C29.5428 32.8123 32.8138 29.5413 32.8138 25.5207C32.8138 21.5 29.5428 18.229 25.5221 18.229Z" fill="black"/>
<path d="M24.0628 29.1666C23.774 29.1666 23.494 29.0514 23.2899 28.8458L20.3732 25.9291C19.9459 25.5018 19.9459 24.8091 20.3732 24.3818C20.8005 23.9545 21.4932 23.9545 21.9205 24.3818L24.0117 26.4716L28.3459 21.5191C28.7455 21.0626 29.4353 21.0189 29.8903 21.4156C30.3453 21.8137 30.3905 22.5049 29.9924 22.9585L24.8882 28.7918C24.6869 29.0208 24.4011 29.1564 24.0992 29.1666C24.0876 29.1666 24.0744 29.1666 24.0628 29.1666Z" fill="black"/>
<path d="M12.3958 30.6249C12.3258 30.6249 12.2558 30.6191 12.1873 30.6045C12.0648 30.5811 0 28.0888 0 14.4811V5.46863C0 5.01655 0.277083 4.61259 0.698542 4.44926L12.0006 0.0742578C12.2544 -0.0234505 12.5358 -0.0234505 12.7896 0.0742578L24.0917 4.44926C24.5146 4.61259 24.7917 5.01655 24.7917 5.46863V12.0311C24.7917 12.6349 24.3017 13.1249 23.6979 13.1249C23.0942 13.1249 22.6042 12.6349 22.6042 12.0311V6.21822L12.3958 2.26759L2.1875 6.21822V14.4811C2.1875 25.5557 10.9521 28.0728 12.4133 28.4155H12.4163C13.0083 28.2901 13.5844 28.6809 13.7025 29.2745C13.8206 29.8666 13.4356 30.4426 12.8435 30.5607L12.5723 30.6103C12.514 30.6205 12.4556 30.6249 12.3958 30.6249Z" fill="black"/>
</g>
<defs>
<clipPath id="clip0">
<rect width="35" height="35" fill="white"/>
</clipPath>
</defs>
</svg>
