<svg width="157" height="26" fill="none" xmlns="http://www.w3.org/2000/svg"><path fill-rule="evenodd" clip-rule="evenodd" d="M9.007 19.976c-.049.391-.104.8-.166 1.228-.061.428-.092.74-.092.935 0 .513.105.971.314 1.374.21.403.572.776 1.089 1.118l-7.31.11c.843-.342 1.459-1.087 1.852-2.236.179-.488.376-1.454.597-2.895L7.894 3.299H4.645a8.89 8.89 0 00-2.467.348A6.14 6.14 0 000 4.765L1.883.367c.197.085.449.146.757.189A10.46 10.46 0 004.282.66h13.77c.418 0 .744-.012.978-.043.234-.024.486-.11.757-.25l-1.772 4.398c-.172-.587-.53-.977-1.07-1.173-.542-.195-1.194-.293-1.957-.293h-3.323L9.007 19.976zm18.472 1.686l4.615.477h.812c2.338 0 4.467-.733 6.386-2.2l-2.325 4.802H21.573c.855-.318 1.483-1.063 1.87-2.236.172-.488.37-1.454.59-2.895l2.223-13.82c.05-.415.117-.904.21-1.472.085-.574.128-1.002.128-1.295 0-.556-.086-1.032-.258-1.417-.172-.391-.48-.666-.923-.837L37.225.66h.702c.443 0 .8-.074 1.07-.22l-.59 4.325a3.366 3.366 0 00-1.723-1.173c-.677-.195-1.514-.293-2.498-.293a37.6 37.6 0 00-2.092.049c-.53.03-1.102.085-1.723.17l-1.107 6.812 4.411.006c.295 0 .578-.006.85-.012.276-.012.547-.067.817-.171l-.516 3.849c-.265-.538-.745-.843-1.434-.917a16.908 16.908 0 00-1.76-.11l-2.72.006-1.433 8.681zM63.117 4.948c-.566-.708-1.347-1.27-2.344-1.686a7.94 7.94 0 00-3.083-.623c-1.255 0-2.338.232-3.248.696-1.024.52-1.672 1.273-1.944 2.253-.115.417-.166.859-.09 1.288.182 1.031 1.1 2.02 2.772 2.923 1.741.94 3.507 1.857 5.28 2.792 1.741 1.145 2.682 2.435 2.823 3.875.063.644-.052 1.425-.226 2.041-.482 1.71-1.651 3.222-3.502 4.542-2.13 1.52-4.609 2.279-7.439 2.279a20.7 20.7 0 01-3.34-.257 15.38 15.38 0 01-3.083-.843l-.332-4.582c.96.953 2.104 1.698 3.433 2.236a11.02 11.02 0 004.171.806 7.226 7.226 0 003.544-.916c1.354-.757 2.129-1.729 2.326-2.902.024-.146.037-.354.037-.623 0-1.3-.935-2.462-2.806-3.488-1.747-.904-3.482-1.814-5.205-2.718-1.87-1.247-2.806-2.768-2.806-4.551 0-.49.025-.856.074-1.1.345-2.132 1.588-3.77 3.729-4.924C53.704.49 55.894 0 58.428 0c1.945 0 3.73.269 5.354.806l-.665 4.142zm35.084 7.477c-.59 3.666-2.412 6.732-5.463 9.2-3.052 2.468-6.448 3.703-10.19 3.703-3.346 0-6.115-.984-8.305-2.951-1.906-1.711-2.982-3.88-3.23-6.506-.18-1.899.035-3.718.657-5.517.876-2.537 2.515-4.76 4.917-6.67C79.675 1.228 83.139 0 86.979 0c3.42 0 6.19 1.026 8.306 3.079 2.042 1.98 3.064 4.46 3.064 7.44 0 .772-.021 1.15-.148 1.906zm-22.926 2.547c.156 1.987.82 3.679 1.995 5.077 1.476 1.76 3.445 2.64 5.906 2.64 2.757 0 5.12-.892 7.088-2.676 1.969-1.784 3.175-4.069 3.618-6.854a11.78 11.78 0 00.148-1.943c0-2.42-.653-4.423-1.957-6.011-1.403-1.71-3.335-2.566-5.796-2.566-2.83 0-5.242.898-7.235 2.694-1.836 1.654-3.014 3.748-3.535 6.282-.233 1.134-.322 2.205-.232 3.357zM116.156.66c2.19 0 3.889.476 5.094 1.423.995.773 1.552 1.785 1.673 3.047.064.668.003 1.32-.165 1.97-.34 1.316-1.125 2.522-2.357 3.609a9.815 9.815 0 01-4.43 2.266l4.246 6.635a18.37 18.37 0 002.326 2.785 20.901 20.901 0 002.842 2.346h-3.396c-1.009 0-1.815-.134-2.418-.403-.603-.269-1.126-.745-1.569-1.43l-3.63-5.528-2.572-5.156c1.846-.269 3.359-.758 4.541-1.466 1.55-.923 2.448-2.181 2.695-3.763.197-1.176-.174-2.427-1.145-3.165-.787-.598-1.784-.898-2.99-.898-.865 0-1.695.133-2.547.257l-2.621 16.42c-.05.392-.117.88-.203 1.467-.086.586-.13 1.026-.13 1.32 0 .586.087 1.062.259 1.429.172.366.48.635.923.806l-7.051.11c.83-.318 1.446-1.063 1.839-2.236.173-.513.37-1.478.585-2.895l1.994-12.476c.134-.839.258-1.674.412-2.51.129-.702.19-1.246.19-1.637 0-.58-.086-1.057-.258-1.417-.172-.367-.48-.63-.923-.8l8.786-.11zm40.515 12.701c-.734 3.255-2.495 6.01-5.283 8.264-3.052 2.468-6.448 3.703-10.189 3.703-3.347 0-6.116-.984-8.306-2.951-1.888-1.695-2.962-3.84-3.223-6.432a12.685 12.685 0 01.405-4.802c.794-2.868 2.515-5.354 5.162-7.46C138.326 1.229 141.79 0 145.629 0c3.421 0 6.189 1.026 8.306 3.079 1.917 1.857 2.935 4.156 3.052 6.896a12.264 12.264 0 01-.316 3.386zm-22.634-1.082c-.112.56-.147 1.189-.147 1.76 0 2.394.676 4.398 2.03 6.01 1.477 1.76 3.445 2.64 5.907 2.64 2.756 0 5.119-.892 7.087-2.676 1.969-1.784 3.175-4.069 3.618-6.854a11.72 11.72 0 00.148-1.943c0-2.42-.652-4.423-1.957-6.011-1.403-1.71-3.335-2.566-5.796-2.566-2.83 0-5.242.898-7.235 2.694-1.994 1.796-3.212 4.111-3.655 6.946z" fill="#1C1C1C"/></svg>