<svg width="157" height="26" viewBox="0 0 157 26" fill="none" xmlns="http://www.w3.org/2000/svg">
<path fill-rule="evenodd" clip-rule="evenodd" d="M9.00749 19.9761C8.95828 20.3671 8.9029 20.7764 8.84137 21.204C8.77984 21.6316 8.74907 21.9432 8.74907 22.1387C8.74907 22.6518 8.85369 23.11 9.06287 23.5132C9.27208 23.9164 9.63508 24.289 10.1519 24.6311L2.84254 24.7411C3.68545 24.399 4.30071 23.6537 4.69448 22.5052C4.87292 22.0165 5.06981 21.0513 5.29127 19.6096L7.89387 3.29883H4.64524C3.80851 3.29883 2.98403 3.41489 2.17803 3.64702C1.36588 3.87918 0.639884 4.25182 0 4.76495L1.88271 0.366539C2.07959 0.452044 2.33186 0.513162 2.63951 0.555897C3.25736 0.641804 3.65589 0.659751 4.28224 0.659751H18.0519C18.4703 0.659751 18.7964 0.647542 19.0302 0.617017C19.264 0.592563 19.5163 0.507057 19.787 0.366539L18.015 4.76495C17.8427 4.1785 17.4859 3.78754 16.9444 3.59204C16.403 3.39654 15.7508 3.29883 14.9879 3.29883H11.6654L9.00749 19.9761ZM27.4793 21.6622L32.0938 22.1387H32.906C35.244 22.1387 37.3728 21.4056 39.2924 19.9395L36.9667 24.7411H21.5728C22.428 24.4234 23.0556 23.6781 23.4432 22.5052C23.6154 22.0165 23.8123 21.0513 24.0338 19.6096L26.2549 5.79125C26.3042 5.37583 26.3719 4.88712 26.4641 4.31901C26.5503 3.74477 26.5933 3.31714 26.5933 3.02393C26.5933 2.468 26.5072 1.9915 26.3349 1.60664C26.1627 1.21568 25.855 0.940788 25.412 0.769745L37.2251 0.659751H37.9266C38.3695 0.659751 38.7264 0.586456 38.9971 0.439833L38.4064 4.76495C37.9388 4.1785 37.3605 3.78754 36.6837 3.59204C36.0069 3.39654 35.1701 3.29883 34.1857 3.29883C33.3243 3.29883 32.623 3.31714 32.0938 3.34767C31.5647 3.37823 30.9925 3.43321 30.3711 3.51874L29.2636 10.3302L33.675 10.3363C33.9704 10.3363 34.2534 10.3302 34.5241 10.324C34.801 10.3118 35.0717 10.2569 35.3424 10.153L34.8256 14.0016C34.561 13.464 34.0811 13.1586 33.392 13.0853C32.7091 13.012 32.1184 12.9753 31.6324 12.9753L28.9129 12.9814L27.4793 21.6622ZM63.1171 4.94821C62.551 4.23958 61.7696 3.67758 60.7729 3.26216C59.7762 2.84675 58.7487 2.63908 57.6904 2.63908C56.4353 2.63908 55.3524 2.8712 54.4418 3.33546C53.418 3.85456 52.7702 4.60813 52.4983 5.58773C52.3826 6.00476 52.3324 6.44701 52.408 6.87574C52.59 7.9073 53.5078 8.89585 55.1801 9.7987C56.9213 10.7387 58.6871 11.6558 60.4591 12.5905C62.2011 13.736 63.1424 15.0262 63.2831 16.4656C63.346 17.1096 63.2312 17.8913 63.0575 18.507C62.5748 20.2179 61.4058 21.7287 59.5547 23.0489C57.4245 24.5681 54.9463 25.3275 52.1161 25.3275C50.9348 25.3275 49.8211 25.242 48.7752 25.0709C47.7292 24.8999 46.7018 24.6189 45.6927 24.2279L45.3605 19.6462C46.3203 20.5992 47.4647 21.3445 48.7936 21.8821C50.1226 22.4197 51.5131 22.6885 52.9651 22.6885C54.2203 22.6885 55.4016 22.383 56.5091 21.7722C57.8627 21.0147 58.6379 20.0433 58.8348 18.8704C58.8594 18.7238 58.8717 18.5161 58.8717 18.2473C58.8717 16.9461 57.9365 15.7854 56.0661 14.7591C54.3187 13.855 52.5837 12.9448 50.8609 12.0406C48.9906 10.7944 48.0554 9.27333 48.0554 7.48953C48.0554 7.00082 48.0799 6.63428 48.1292 6.38991C48.4737 4.25789 49.7166 2.62073 51.8577 1.46613C53.7035 0.488708 55.8938 0 58.4288 0C60.373 0 62.1573 0.268792 63.7816 0.806375L63.1171 4.94821ZM98.2011 12.4255C97.6104 16.0909 95.7892 19.1575 92.7375 21.6255C89.6858 24.0935 86.2895 25.3275 82.5487 25.3275C79.2016 25.3275 76.4329 24.344 74.2426 22.3769C72.3372 20.6658 71.2606 18.4971 71.0127 15.8707C70.8336 13.9724 71.0484 12.153 71.6696 10.3544C72.546 7.81686 74.1851 5.59327 76.5868 3.68368C79.6754 1.22793 83.1393 0 86.9786 0C90.3995 0 93.1682 1.02632 95.2847 3.07888C97.3274 5.0582 98.3487 7.53841 98.3487 10.5195C98.3487 11.2906 98.328 11.6694 98.2011 12.4255ZM75.2752 14.972C75.4311 16.9585 76.0959 18.6509 77.2697 20.0494C78.7463 21.8088 80.7152 22.6885 83.1762 22.6885C85.9327 22.6885 88.2953 21.7966 90.2641 20.0128C92.233 18.229 93.4389 15.9442 93.8819 13.1586C93.9803 12.5721 94.0296 11.9246 94.0296 11.216C94.0296 8.79683 93.3774 6.79312 92.073 5.20479C90.6702 3.49429 88.7383 2.63908 86.2772 2.63908C83.447 2.63908 81.0351 3.53706 79.0417 5.33306C77.2062 6.98674 76.028 9.08058 75.507 11.6146C75.2736 12.7494 75.1848 13.8198 75.2752 14.972ZM116.156 0.659751C118.346 0.659751 120.045 1.13625 121.25 2.08314C122.245 2.85564 122.802 3.86844 122.923 5.12975C122.987 5.79772 122.926 6.45036 122.758 7.10082C122.418 8.41553 121.633 9.62226 120.401 10.7089C119.098 11.8586 117.62 12.6088 115.971 12.9753L120.217 19.6096C120.857 20.5626 121.632 21.4911 122.543 22.3952C123.379 23.2261 124.327 24.008 125.385 24.7411H121.989C120.98 24.7411 120.174 24.6067 119.571 24.3379C118.968 24.0691 118.445 23.5926 118.002 22.9084L114.372 17.3798L111.8 12.2239C113.646 11.9551 115.159 11.4664 116.341 10.7578C117.891 9.83536 118.789 8.57691 119.036 6.99469C119.233 5.81886 118.862 4.56818 117.891 3.83031C117.104 3.23161 116.107 2.93229 114.901 2.93229C114.036 2.93229 113.206 3.06546 112.354 3.18887L109.733 19.6096C109.683 20.0006 109.616 20.4893 109.53 21.0757C109.444 21.6622 109.4 22.102 109.4 22.3952C109.4 22.9817 109.487 23.4582 109.659 23.8247C109.831 24.1913 110.139 24.4601 110.582 24.6311L103.531 24.7411C104.361 24.4234 104.977 23.6781 105.37 22.5052C105.543 21.9921 105.74 21.0269 105.955 19.6096L107.949 7.1343C108.083 6.29532 108.207 5.46036 108.361 4.62447C108.49 3.92192 108.551 3.37823 108.551 2.98727C108.551 2.40691 108.465 1.93041 108.293 1.56998C108.121 1.20347 107.813 0.940788 107.37 0.769745L116.156 0.659751ZM156.671 13.3612C155.937 16.6157 154.176 19.3705 151.388 21.6255C148.336 24.0935 144.94 25.3275 141.199 25.3275C137.852 25.3275 135.083 24.344 132.893 22.3769C131.005 20.6819 129.931 18.5378 129.67 15.9447C129.502 14.2773 129.63 12.7512 130.075 11.1429C130.869 8.27497 132.59 5.7886 135.237 3.68368C138.326 1.22793 141.79 0 145.629 0C149.05 0 151.818 1.02632 153.935 3.07888C155.852 4.93647 156.87 7.2353 156.987 9.97531C157.039 11.1667 156.934 12.1936 156.671 13.3612ZM134.037 12.2789C133.925 12.8382 133.89 13.4678 133.89 14.0382C133.89 16.433 134.566 18.4367 135.92 20.0494C137.397 21.8088 139.365 22.6885 141.827 22.6885C144.583 22.6885 146.946 21.7966 148.914 20.0128C150.883 18.229 152.089 15.9442 152.532 13.1586C152.631 12.5721 152.68 11.9246 152.68 11.216C152.68 8.79683 152.028 6.79312 150.723 5.20479C149.32 3.49429 147.388 2.63908 144.927 2.63908C142.097 2.63908 139.685 3.53706 137.692 5.33306C135.698 7.1291 134.48 9.44437 134.037 12.2789Z" fill="white"/>
</svg>
