<svg width="20" height="24" xmlns="http://www.w3.org/2000/svg"><path opacity=".95" d="M18.99 22.081L17.665 7.173a.784.784 0 00-.777-.72h-2.73V5.209C14.16 2.888 12.294 1 10 1 7.707 1 5.84 2.888 5.84 5.208v1.246H3.11a.784.784 0 00-.778.719L1.003 22.14c-.02.22.054.44.202.603A.777.777 0 001.78 23h16.438a.785.785 0 00.77-.919zM7.4 5.208c0-1.45 1.166-2.629 2.599-2.629 1.433 0 2.598 1.18 2.598 2.63v1.245H7.401V5.208zM2.634 21.421L3.823 8.033H5.84v1.412c0 .436.35.79.78.79a.785.785 0 00.781-.79V8.033h5.197v1.412c0 .436.35.79.781.79.431 0 .78-.354.78-.79V8.033h2.016l1.188 13.388H2.634z"/></svg>