<svg width="19" height="22" xmlns="http://www.w3.org/2000/svg"><path d="M18.329.727a1.64 1.64 0 00-.764-.596 1.61 1.61 0 00-.64-.13V0H1.687a1.63 1.63 0 00-.64.13C.727.258.473.457.284.728A1.543 1.543 0 000 1.629v18.743c0 .33.095.63.284.901.189.272.443.47.763.596.203.087.417.131.64.131.455 0 .857-.16 1.207-.48l6.412-6.165 6.413 6.165c.339.31.741.465 1.206.465.243 0 .456-.038.64-.116.32-.126.575-.324.764-.596.189-.271.283-.572.283-.902V1.63c0-.33-.095-.63-.283-.902zM16.75 19.921l-6.15-5.904-1.295-1.236-1.294 1.236-6.15 5.904V1.86H16.75v18.06z"/></svg>