<svg width="16" height="20" fill="none" xmlns="http://www.w3.org/2000/svg"><path d="M5.333 9v2H3.556V9h1.777zM8.89 9v2H7.11V9h1.78zm3.555 0v2h-1.777V9h1.777zm1.778-7c.472 0 .924.21 1.257.586.333.374.52.884.52 1.414v14c0 .53-.187 1.04-.52 1.414a1.684 1.684 0 01-1.258.586H1.778C.79 20 0 19.1 0 18V4c0-.53.187-1.04.52-1.414A1.684 1.684 0 011.779 2h.889V0h1.777v2h7.112V0h1.777v2h.89zm0 16V7H1.778v11h12.444zm-8.889-5v2H3.556v-2h1.777zm3.556 0v2H7.11v-2h1.78zm3.555 0v2h-1.777v-2h1.777z" fill="#848484"/></svg>