<svg width="23" height="23" xmlns="http://www.w3.org/2000/svg"><path d="M19.167 0H3.833A3.838 3.838 0 000 3.833v11.5a3.838 3.838 0 003.833 3.834H16.82l2.87 3.229a1.912 1.912 0 002.127.456A1.91 1.91 0 0023 21.082V3.832A3.838 3.838 0 0019.167 0zm1.916 21.08l-3.117-3.508-.02-.019c-.024-.025-.05-.046-.075-.069-.022-.019-.044-.039-.068-.056-.026-.018-.053-.033-.081-.049-.027-.015-.053-.03-.08-.043a.641.641 0 00-.087-.031c-.03-.01-.059-.021-.09-.028-.028-.007-.057-.01-.086-.014a.94.94 0 00-.102-.01c-.01 0-.018-.003-.027-.003H3.833a1.919 1.919 0 01-1.916-1.917v-11.5c0-1.057.86-1.916 1.916-1.916h15.334c1.057 0 1.916.86 1.916 1.916V21.08z"/></svg>