<svg width="35" height="35" fill="none" xmlns="http://www.w3.org/2000/svg"><g clip-path="url(#clip0)" fill="#000"><path d="M20.207 28.007H17.39a.97.97 0 100 1.943h2.818a.97.97 0 100-1.943z"/><path d="M34.132 10.031L24.969.868a2.97 2.97 0 00-4.196 0L5.533 16.122h-2.57A2.967 2.967 0 000 19.085v12.952A2.967 2.967 0 002.963 35h20.972a2.967 2.967 0 002.963-2.963V21.455l7.227-7.228a2.963 2.963 0 00.007-4.196zM22.15 2.246c.4-.4 1.047-.4 1.446 0l1.585 1.585-12.284 12.291H8.275L22.15 2.246zM1.943 19.085c0-.565.455-1.02 1.02-1.02h20.972c.565 0 1.02.455 1.02 1.02v2.246H1.943v-2.246zm23.019 12.96c0 .564-.455 1.019-1.02 1.019H2.962c-.564 0-1.02-.455-1.02-1.02v-8.77h23.02v8.77zm7.799-19.189l-5.877 5.877a2.97 2.97 0 00-2.942-2.611h-8.289L26.56 5.209l6.2 6.2c.394.4.394 1.048 0 1.447z"/></g><defs><clipPath id="clip0"><path fill="#fff" d="M0 0h35v35H0z"/></clipPath></defs></svg>