<svg width="24" height="22" xmlns="http://www.w3.org/2000/svg"><path opacity=".95" d="M21.2 2.88A6.09 6.09 0 0016.799 1a6.097 6.097 0 00-4.408 1.88l-.388.4-.389-.4C9.352.497 5.545.36 3.111 2.573a6.496 6.496 0 00-.312 9.28l8.632 8.906a.799.799 0 001.142 0l8.628-8.906a6.495 6.495 0 000-8.974zm-1.137 7.915l-8.061 8.318-8.062-8.318a4.964 4.964 0 010-6.857c1.664-1.765 4.476-1.876 6.28-.247.087.079.172.161.252.247l.959.989a.823.823 0 001.142 0l.958-.988c1.664-1.765 4.476-1.876 6.28-.248.087.08.171.162.252.248 1.849 1.937 1.862 4.931 0 6.856z"/></svg>