<svg width="35" height="35" fill="none" xmlns="http://www.w3.org/2000/svg"><g clip-path="url(#clip0)"><path d="M34.905 20.603a.69.69 0 00-.336-.29l-2.51-1.028 2.6-1.531a.69.69 0 00-.09-1.234l-2.51-1.028 2.6-1.53a.69.69 0 00.33-.656.69.69 0 00-.427-.586L24.68 8.672l-4.87-2.069a.69.69 0 00-.248-.048l-7.93-3.228a.69.69 0 00-.6.035L.405 9.334a.69.69 0 00.069 1.262l2.565 1.062-2.634 1.469a.69.69 0 00.069 1.234l2.565 1.062-2.62 1.469a.69.69 0 00.055 1.29l2.565 1.055-2.62 1.469a.69.69 0 00.068 1.234l8.917 3.786a.685.685 0 00.103.062l4.876 2.069 8.965 3.813a.69.69 0 00.62-.041l10.69-6.29a.69.69 0 00-.09-1.234l-2.51-1.027 2.6-1.531a.69.69 0 00.246-.944zm-2.15-3.345l-9.192 5.413-8.22-3.49v-2.296l8 3.4a.689.689 0 00.62-.041l6.6-3.883 2.192.897zm.028-3.8l-9.22 5.413-7.469-3.172 8.413-5.62 8.276 3.379zM9.067 24.098l-6.765-2.875 2.324-1.303 4.448 1.889-.007 2.29zm0-3.792L2.302 17.43l2.324-1.317 4.448 1.89-.007 2.303zm0-3.793l-6.765-2.869 2.324-1.303 4.448 1.89-.007 2.282zM2.302 9.85l9.117-5.124 6.613 2.71-8.33 5.559-7.4-3.145zm11.965 5.42a.69.69 0 00-.304.573v10.344l-3.51-1.49V14.154l9.138-6.089 3.4 1.38-8.724 5.826zm18.488 9.572l-9.192 5.407-8.22-3.49v-2.29l8 3.366a.69.69 0 00.62-.041l6.6-3.883 2.192.931zm-9.192 1.614l-8.22-3.49v-2.289l8.006 3.4a.69.69 0 00.62-.042l6.6-3.882 2.186.896-9.192 5.407z" fill="#000"/></g><defs><clipPath id="clip0"><path fill="#fff" d="M0 0h35v35H0z"/></clipPath></defs></svg>