<svg width="20" height="20" fill="none" xmlns="http://www.w3.org/2000/svg"><g clip-path="url(#clip0)" fill="#848484"><path d="M14.219 6.721a1.25 1.25 0 100-2.5 1.25 1.25 0 000 2.5z"/><path d="M19.784 6.482c-.417-1.062-1.182-2.595-2.457-3.864C16.056 1.353 14.539.609 13.49.208a3.14 3.14 0 00-3.332.707L7.091 3.97a3.126 3.126 0 00-.652 3.465c.161.362.336.717.523 1.059L.23 15.226a.782.782 0 00-.23.554v3.437c0 .432.35.781.781.781H4.22c.431 0 .781-.35.781-.78V17.81h1.406a.78.78 0 00.781-.781v-1.407h1.407a.781.781 0 100-1.562H6.406a.781.781 0 00-.781.781v1.406H4.219a.781.781 0 00-.782.782v1.406H1.562v-2.333L8.49 9.174a.781.781 0 00.116-.957c-.27-.447-.52-.923-.74-1.418a1.555 1.555 0 01.328-1.723l3.067-3.053a1.576 1.576 0 011.672-.355c.907.347 2.215.985 3.291 2.057 1.084 1.078 1.743 2.405 2.106 3.328a1.55 1.55 0 01-.35 1.667l-3.105 3.09a1.573 1.573 0 01-1.72.336 10.136 10.136 0 01-1.406-.718.781.781 0 00-.817 1.332c.514.316 1.06.594 1.623.829 1.178.49 2.52.226 3.422-.67l3.105-3.091a3.113 3.113 0 00.702-3.346z"/></g><defs><clipPath id="clip0"><path fill="#fff" d="M0 0h20v20H0z"/></clipPath></defs></svg>