<svg width="35" height="35" fill="none" xmlns="http://www.w3.org/2000/svg"><path fill-rule="evenodd" clip-rule="evenodd" d="M28.027 0c.567 0 1.026.459 1.026 1.025v13.606A10.75 10.75 0 0135 24.25C35 30.186 30.187 35 24.25 35a10.75 10.75 0 01-9.62-5.947H1.026A1.025 1.025 0 010 28.027V1.025C0 .46.459 0 1.025 0h27.002zm-8.613 2.05v5.747c0 .738-.787 1.305-1.555.878l-3.333-1.693-3.401 1.728a1.024 1.024 0 01-1.484-.913L9.64 2.051H2.05v24.951h11.806A10.75 10.75 0 0116.65 16.65a10.75 10.75 0 0110.352-2.793V2.05h-7.588zm1.572 26.73h4.785a3.952 3.952 0 002.802-1.164c.755-.754 1.163-1.732 1.163-2.87a3.97 3.97 0 00-3.965-3.965h-2.85l.603-.603c.948-.954-.502-2.395-1.45-1.442l-2.352 2.356c-.398.4-.397 1.048.004 1.446l2.356 2.352c.954.948 2.396-.502 1.442-1.45l-.61-.608h2.857c1.11 0 1.915.888 1.915 1.982a1.92 1.92 0 01-1.915 1.915h-4.785a1.025 1.025 0 100 2.05zM18.1 18.1a8.7 8.7 0 1012.304 12.3A8.7 8.7 0 0018.1 18.1zm-.736-16.05H11.69v4.08l2.373-1.207a1.02 1.02 0 01.924 0l2.376 1.207V2.05z" fill="#000"/></svg>