<svg width="21" height="22" xmlns="http://www.w3.org/2000/svg"><path opacity=".95" d="M15.427 14.529l-.057.068.061.065 5.177 5.445a1.07 1.07 0 01-.029 1.498h0a1.033 1.033 0 01-1.477-.03l-5.216-5.486-.06-.063-.07.05a8.52 8.52 0 01-4.974 1.589C3.996 17.665.1 13.726.1 8.882.1 4.04 3.996.1 8.782.1c4.786 0 8.682 3.939 8.682 8.782a8.815 8.815 0 01-2.037 5.647zm-.054-5.647c0-3.674-2.955-6.665-6.59-6.665-3.636 0-6.592 2.991-6.592 6.665 0 3.675 2.956 6.666 6.591 6.666 3.636 0 6.591-2.991 6.591-6.666z" stroke="#fff" stroke-width=".2"/></svg>