<svg width="20" height="20" xmlns="http://www.w3.org/2000/svg"><path d="M16.025 14.147c-.763 0-1.45.296-1.973.773L6.9 10.748c.055-.226.09-.462.09-.703 0-.24-.035-.476-.09-.702l7.078-4.132a2.99 2.99 0 002.048.813 3.014 3.014 0 003.012-3.012A3.014 3.014 0 0016.025 0a3.014 3.014 0 00-3.012 3.012c0 .241.035.477.09.703L6.025 7.847a2.99 2.99 0 00-2.048-.814 3.014 3.014 0 00-3.012 3.012 3.014 3.014 0 003.012 3.012 2.99 2.99 0 002.048-.813l7.154 4.172c-.05.21-.08.432-.08.657a2.927 2.927 0 102.926-2.926z"/></svg>