<svg width="35" height="35" fill="none" xmlns="http://www.w3.org/2000/svg"><g clip-path="url(#clip0)" fill="#000"><path d="M25.522 35c-5.226 0-9.479-4.253-9.479-9.48 0-5.226 4.253-9.479 9.48-9.479 5.226 0 9.478 4.253 9.478 9.48 0 5.226-4.252 9.479-9.479 9.479zm0-16.771c-4.02 0-7.291 3.271-7.291 7.292 0 4.02 3.27 7.291 7.291 7.291 4.02 0 7.292-3.27 7.292-7.291 0-4.021-3.271-7.292-7.292-7.292z"/><path d="M24.063 29.167c-.289 0-.569-.116-.773-.321l-2.917-2.917a1.094 1.094 0 111.547-1.547l2.092 2.09 4.334-4.953a1.094 1.094 0 111.646 1.44l-5.104 5.833a1.101 1.101 0 01-.789.375h-.036zm-11.667 1.458a1 1 0 01-.209-.02C12.065 30.58 0 28.089 0 14.48V5.47c0-.452.277-.856.699-1.02L12 .074c.253-.097.535-.097.789 0L24.092 4.45c.423.164.7.568.7 1.02v6.562a1.094 1.094 0 01-2.188 0V6.218l-10.208-3.95-10.209 3.95v8.263c0 11.075 8.765 13.592 10.226 13.935h.003a1.087 1.087 0 011.287.858 1.094 1.094 0 01-.86 1.287l-.27.05c-.059.01-.117.014-.177.014z"/></g><defs><clipPath id="clip0"><path fill="#fff" d="M0 0h35v35H0z"/></clipPath></defs></svg>